<svg width="21" height="20" viewBox="0 0 21 20" fill="none" xmlns="http://www.w3.org/2000/svg">
<path d="M20.5133 0L11.5024 6.66742L13.1781 2.73812L20.5133 0Z" fill="#C8C8C8"/>
<path d="M0.508059 0.0078125L7.82369 2.73855L9.41477 6.71936L0.508059 0.0078125ZM16.8872 14.1797L20.8699 14.2555L19.4779 18.9839L14.6182 17.6459L16.8872 14.1797ZM4.11317 14.1797L6.3737 17.6459L1.52213 18.984L0.138672 14.2555L4.11317 14.1797Z" fill="#C8C8C8"/>
<path d="M9.19825 5.70538L9.361 10.9622L4.49072 10.7406L5.87607 8.65063L5.89362 8.63053L9.19825 5.70538ZM11.7513 5.64673L15.1064 8.6307L15.1238 8.65071L16.5091 10.7407L11.6399 10.9622L11.7513 5.64673ZM6.51616 14.195L9.17545 16.267L6.08631 17.7584L6.51616 14.195ZM14.4843 14.1946L14.9052 17.7585L11.8247 16.2668L14.4843 14.1946Z" fill="#C8C8C8"/>
<path d="M11.8928 16.0718L15.0188 17.5854L12.1111 18.9673L12.1412 18.054L11.8928 16.0718ZM9.10649 16.0724L8.86787 18.0391L8.88747 18.9663L5.9729 17.5854L9.10649 16.0724Z" fill="#D3D3D3"/>
<path d="M8.20374 11.6482L9.02061 13.3649L6.2395 12.5502L8.20374 11.6482ZM12.7963 11.6484L14.7698 12.5502L11.9796 13.3647L12.7963 11.6484Z" fill="#233447"/>
<path d="M6.72866 14.1775L6.27913 17.8721L3.86963 14.2583L6.72866 14.1775ZM14.2714 14.1775L17.1306 14.2583L14.712 17.8723L14.2714 14.1775ZM16.5795 10.5317L14.4987 12.6523L12.8945 11.9192L12.1264 13.5339L11.6229 10.7572L16.5795 10.5317ZM4.4194 10.5317L9.37696 10.7572L8.87337 13.5339L8.10515 11.9195L6.50939 12.6524L4.4194 10.5317Z" fill="#BABABA"/>
<path d="M4.27905 10.0966L6.63319 12.4854L6.71472 14.8437L4.27905 10.0966ZM16.7229 10.0923L14.2828 14.8479L14.3747 12.4854L16.7229 10.0923ZM9.26171 10.2421L9.35646 10.8384L9.59058 12.3241L9.44005 16.8871L8.72843 13.2215L8.72818 13.1836L9.26171 10.2421ZM11.7367 10.2338L12.2716 13.1836L12.2714 13.2215L11.5579 16.8963L11.5297 15.9771L11.4184 12.297L11.7367 10.2338Z" fill="#CECECE"/>
<path d="M14.5843 12.3906L14.5046 14.4396L12.0212 16.3745L11.5192 16.0198L12.0819 13.1212L14.5843 12.3906ZM6.42456 12.3906L8.91823 13.1212L9.48096 16.0198L8.97893 16.3745L6.49544 14.4394L6.42456 12.3906Z" fill="#D7D7D7"/>
<path d="M5.49756 17.1331L8.67479 18.6385L8.66134 17.9956L8.9272 17.7622H12.0718L12.3472 17.9948L12.3269 18.6372L15.484 17.1368L13.9478 18.4063L12.0902 19.6822H8.90169L7.04532 18.4011L5.49756 17.1331Z" fill="#8D8D8D"/>
<path d="M11.6653 15.8713L12.1145 16.1887L12.3777 18.289L11.9968 17.9674H9.00459L8.63086 18.2955L8.88548 16.1889L9.33485 15.8713H11.6653Z" fill="#161616"/>
<path d="M19.9183 0.18457L21 3.42948L20.3245 6.71049L20.8055 7.08151L20.1546 7.57813L20.6438 7.95597L19.996 8.54585L20.3937 8.83386L19.3383 10.0665L15.0095 8.80606L14.972 8.78596L11.8526 6.15456L19.9183 0.18457ZM1.08166 0.18457L9.14747 6.15456L6.02798 8.78596L5.9905 8.80606L1.66171 10.0665L0.606293 8.83386L1.00365 8.5461L0.356262 7.95597L0.844512 7.57854L0.183832 7.08053L0.682992 6.70925L0 3.42964L1.08166 0.18457Z" fill="#5F5F5F"/>
<path d="M14.7978 8.53052L19.3844 9.86591L20.8745 14.4585H16.9432L14.2346 14.4926L16.2044 10.6529L14.7978 8.53052ZM6.20222 8.53052L4.7953 10.6529L6.76544 14.4926L4.058 14.4585H0.133789L1.61552 9.86599L6.20222 8.53052ZM13.4026 2.71631L12.1197 6.18123L11.8474 10.8619L11.7433 12.3291L11.735 16.0769H9.26493L9.25689 12.3361L9.15239 10.8607L8.88004 6.18123L7.59732 2.71631H13.4026Z" fill="#DCDCDC"/>
</svg>
